<?xml version="1.0" encoding="utf-8"?>
<!-- Generator: Adobe Illustrator 16.0.0, SVG Export Plug-In . SVG Version: 6.00 Build 0)  -->
<!DOCTYPE svg PUBLIC "-//W3C//DTD SVG 1.1//EN" "http://www.w3.org/Graphics/SVG/1.1/DTD/svg11.dtd">
<svg version="1.1" id="Layer_1" xmlns="http://www.w3.org/2000/svg" xmlns:xlink="http://www.w3.org/1999/xlink" x="0px" y="0px"
	 width="116px" height="74.324px" viewBox="0 0 116 74.324" enable-background="new 0 0 116 74.324" xml:space="preserve">
<g>
	<path fill-rule="evenodd" clip-rule="evenodd" fill="#2B2B2B" d="M16.439,44.218c2.432-6.794,4.863-13.588,7.291-20.372
		c1.712,2.654,3.19,4.834,0.219,10.425c3.137,0.914,6.174,1.797,9.514,2.768c-1.298,0.29-2.573,0.867-3.801,0.78
		c-1.951-0.137-3.883-0.665-5.799-1.128c-1.646-0.398-2.801-0.075-3.581,1.576c-0.995,2.105-2.165,4.128-3.258,6.185
		C16.829,44.375,16.634,44.297,16.439,44.218z"/>
	<path fill-rule="evenodd" clip-rule="evenodd" fill="#2B2B2B" d="M42.895,55.563c-0.681,1.623-1.36,3.244-2.041,4.865
		c-0.104-0.024-0.209-0.05-0.313-0.075c0.241-1.772,0.482-3.546,0.723-5.318c-0.071-0.02-0.143-0.041-0.214-0.063
		c-1.235,3.453-2.469,6.905-3.704,10.358c-0.189-0.055-0.378-0.109-0.567-0.164c1.22-4.763,2.439-9.527,3.627-14.165
		c2.317,0.325,4.399,0.616,6.647,0.932c-0.982,2.446-2.027,5.049-3.073,7.652c-0.076-0.026-0.153-0.051-0.229-0.077
		c0.246-1.535,0.493-3.069,0.738-4.604c-0.09-0.022-0.18-0.043-0.269-0.066c-0.49,1.207-0.979,2.414-1.47,3.62
		c-0.089-0.017-0.177-0.033-0.266-0.05c0.191-0.9,0.384-1.802,0.575-2.703C43.005,55.659,42.95,55.611,42.895,55.563z"/>
	<path fill-rule="evenodd" clip-rule="evenodd" fill="#2B2B2B" d="M5.553,62.361c2.865-4.415,5.615-8.91,8.636-13.215
		c2.01-2.863,7.376-2.298,9.096,0.801c0.283,0.509,0.206,1.218-0.133,1.939c-0.213-0.412-0.412-0.832-0.641-1.233
		c-1.115-1.949-2.766-2.529-4.631-1.236c-1.651,1.145-3.17,2.567-4.482,4.095c-2.571,2.989-4.956,6.136-7.417,9.217
		C5.837,62.606,5.695,62.483,5.553,62.361z"/>
	<path fill-rule="evenodd" clip-rule="evenodd" fill="#2B2B2B" d="M36.503,29.599c-0.708,2.251-3.075,3.216-4.92,1.984
		c-3.391-2.266-6.308-4.987-7.667-9.02c-0.629-1.87-0.303-3.535,1.371-5.975c0.538,0.421,1.067,0.835,1.74,1.362
		c-2.795,3.624-1.05,6.375,1.608,8.914c1.06,1.012,2.109,2.07,3.308,2.896C33.36,30.74,34.935,31.153,36.503,29.599z"/>
	<path fill-rule="evenodd" clip-rule="evenodd" fill="#2B2B2B" d="M17.314,56.917c-0.543-0.731-0.828-1.115-1.196-1.612
		c1.542-0.137,3.002-0.265,4.638-0.409c-2.678,3.148-5.295,6.226-7.912,9.304c-0.091-0.063-0.182-0.126-0.274-0.188
		c0.738-1.109,1.475-2.217,2.212-3.326c-0.081-0.056-0.161-0.113-0.241-0.169c-0.954,1.073-1.908,2.144-2.861,3.215
		c-0.079-0.046-0.157-0.093-0.236-0.14c0.76-1.219,1.518-2.437,2.276-3.656c-0.09-0.069-0.18-0.139-0.271-0.208
		c-0.721,0.812-1.442,1.625-2.163,2.436c-0.088-0.052-0.177-0.104-0.265-0.156c1.2-2.009,2.399-4.018,3.665-6.136
		C15.468,56.182,16.195,56.471,17.314,56.917z"/>
	<path fill-rule="evenodd" clip-rule="evenodd" fill="#2B2B2B" d="M32.547,14.183c0.388-1.042,0.754-2.091,1.165-3.123
		c1.006-2.523-0.714-5.544-3.271-5.379c-1.052,0.067-2.567,0.758-2.928,1.58c-0.365,0.83,0.436,2.175,0.732,3.314
		c-1.064,0.021-2.57-0.476-2.814-1.798c-0.181-0.979,0.6-2.45,1.407-3.233c2.023-1.964,5.719-1.288,7.294,1.256
		c0.653,1.054,1.104,2.318,1.295,3.542c0.106,0.683-0.406,1.542-0.826,2.204c-0.428,0.674-1.083,1.202-1.639,1.793
		C32.825,14.286,32.687,14.234,32.547,14.183z"/>
	<path fill-rule="evenodd" clip-rule="evenodd" fill="#2B2B2B" d="M42.038,27.535c0,0.694,0.213,1.477-0.032,2.069
		c-2.488,5.995-5.032,11.967-7.604,17.925c-0.858,1.987-3.189,2.361-4.531,0.69c-0.341-0.425-0.112-1.308-0.132-1.717
		c0.809,0.539,1.538,1.405,2.242,1.385c0.647-0.021,1.534-0.868,1.857-1.564c2.17-4.676,4.522-9.308,6.125-14.182
		c0.497-1.511,1.733-2.86,1.478-4.631C41.64,27.518,41.839,27.526,42.038,27.535z"/>
	<path fill-rule="evenodd" clip-rule="evenodd" fill="#2B2B2B" d="M23.565,48.935c-0.833-0.742-1.664-1.485-2.797-2.497
		c3.115-1.629,6.055-3.167,8.993-4.702c0.114,0.165,0.229,0.331,0.343,0.494c-2.355,1.958-4.711,3.914-7.068,5.87
		C23.213,48.378,23.389,48.656,23.565,48.935z"/>
	<path fill-rule="evenodd" clip-rule="evenodd" fill="#2B2B2B" d="M39.295,48.357c-1.218-0.313-2.476-0.635-3.967-1.017
		c0.503-1.141,0.9-2.04,1.202-2.724c0.929,0.369,1.86,1.115,2.51,0.921c1.396-0.418,2.612-3.029,2.265-4.24
		c-0.203-0.709-0.51-1.388-0.94-2.533c1.75,1.859,2.464,3.299,0.993,5.277C40.47,45.235,40.034,46.764,39.295,48.357z"/>
	<path fill-rule="evenodd" clip-rule="evenodd" fill="#2B2B2B" d="M46.813,16.973c0.526-0.357,0.926-0.63,1.813-1.234
		c-3.22-0.987-6.01-1.841-8.801-2.697c0.038-0.163,0.076-0.323,0.114-0.485c3.233,0.809,6.484,1.553,9.689,2.461
		c1.179,0.334,1.321,1.3,0.521,2.239c-0.661,0.775-1.368,1.656-2.498,0.616C47.375,17.619,47.137,17.324,46.813,16.973z"/>
	<path fill-rule="evenodd" clip-rule="evenodd" fill="#2B2B2B" d="M44.873,20.683c-0.706-1.088-1.042-1.609-1.543-2.383
		c0.922,0.289,1.585,0.495,2.754,0.859c-0.922-1.513-1.612-2.647-2.289-3.76c1.469,0.501,3.601,2.757,3.189,3.831
		c-0.466,1.215-1.503,3.004-2.395,3.066c-1.177,0.082-2.454-1.271-3.466-2.375C42.202,20.14,43.279,20.359,44.873,20.683z"/>
	<path fill-rule="evenodd" clip-rule="evenodd" fill="#2B2B2B" d="M39.5,19.404c-1.004,2.729-1.908,5.347-2.94,7.913
		c-0.44,1.095-2.714,1.076-3.372-0.007c-0.646-1.064-1.159-2.21-1.569-3.438c1.029,1.062,2.058,2.124,3.177,3.28
		C37.489,25.129,36.267,20.999,39.5,19.404z"/>
	<path fill-rule="evenodd" clip-rule="evenodd" fill="#2B2B2B" d="M42.955,23.754c0.688,1.118,1.377,2.235,2.064,3.353
		c0.09-0.034,0.179-0.068,0.268-0.102c-0.467-1.196-0.933-2.392-1.401-3.588c0.146-0.128,0.292-0.257,0.437-0.384
		c0.506,0.604,1.223,1.129,1.479,1.824c0.767,2.078-0.264,4.095-3.002,5.901c1.585-2.392,0.362-4.542-0.731-6.703
		C42.365,23.956,42.66,23.854,42.955,23.754z"/>
	<path fill-rule="evenodd" clip-rule="evenodd" fill="#2B2B2B" d="M46.866,44.95c-0.244-1.053-0.43-1.856-0.616-2.659
		c-0.893,0.353-1.84,0.611-2.657,1.094c-0.485,0.287-0.763,0.927-1.248,1.292c0.67-2.709,2.388-4.064,4.628-3.838
		c1.078,0.109,2.191,0.396,1.928,1.789C48.69,43.757,48.727,45.41,46.866,44.95z"/>
	<path fill-rule="evenodd" clip-rule="evenodd" fill="#2B2B2B" d="M41.887,24.404c-2.452,3.925-4.903,7.848-7.354,11.773
		c-0.046-0.007-0.092-0.014-0.139-0.021c1.279-2.883,2.394-5.855,3.91-8.607c0.713-1.295,2.198-2.166,3.334-3.229
		C41.722,24.348,41.804,24.375,41.887,24.404z"/>
	<path fill-rule="evenodd" clip-rule="evenodd" fill="#2B2B2B" d="M43.364,49.326c0.801-0.167,1.603-0.335,2.681-0.562
		c-1.065-0.396-1.898-0.705-3.127-1.163c1.884-0.295,3.378-0.529,5.193-0.813c-0.262,1.104-0.499,2.101-0.797,3.357
		c-1.381-0.154-2.734-0.306-4.087-0.457C43.273,49.569,43.319,49.448,43.364,49.326z"/>
	<path fill-rule="evenodd" clip-rule="evenodd" fill="#2B2B2B" d="M44.906,68.303c-2.504,0.292-4.638,0.567-6.381-1.405
		c1.532,0.174,3.063,0.349,4.596,0.524c0.039-0.125,0.079-0.253,0.118-0.379c-1.118-0.38-2.235-0.762-3.424-1.167
		C41.956,65.521,43.546,66.202,44.906,68.303z"/>
	<path fill-rule="evenodd" clip-rule="evenodd" fill="#2B2B2B" d="M34.061,15.357c-0.642,1.966-1.283,3.931-1.902,5.83
		c-0.858-0.841-1.687-1.654-2.546-2.496c0.584,0.108,1.181,0.218,1.775,0.327c0.796-1.307,1.566-2.57,2.335-3.833
		C33.836,15.243,33.948,15.3,34.061,15.357z"/>
	<path fill-rule="evenodd" clip-rule="evenodd" fill="#2B2B2B" d="M31.77,11.709c-2.642,0-4.813,0.042-6.979-0.038
		c-0.393-0.014-0.844-0.458-1.109-0.821c-0.094-0.128,0.273-0.859,0.45-0.868c0.415-0.018,0.832,0.275,1.264,0.37
		C27.346,10.782,29.301,11.187,31.77,11.709z"/>
	<path fill-rule="evenodd" clip-rule="evenodd" fill="#2B2B2B" d="M30.527,16.552c-0.927,0.159-2.062,0.717-2.631,0.364
		c-0.869-0.541-1.35-1.709-1.657-2.777C27.559,14.883,28.879,15.625,30.527,16.552z"/>
	<path fill-rule="evenodd" clip-rule="evenodd" fill="#2B2B2B" d="M4.176,68.101c0.358-1.157,0.544-2.112,1.001-2.913
		c0.081-0.143,1.287,0.358,2.363,0.676c-1.061,0.322-1.631,0.496-2.701,0.823c1.177,0.568,1.923,0.929,2.924,1.414
		C6.598,68.101,5.655,68.101,4.176,68.101z"/>
</g>
<g>
	<path fill="#C12026" d="M70.224,41.635V22.228h2.657v19.407H70.224z"/>
	<path fill="#C12026" d="M76.029,41.635V22.228h4.811c1.686,0,2.907,0.455,3.664,1.364c0.757,0.909,1.135,2.242,1.135,3.998
		c0,1.576-0.408,2.805-1.223,3.687s-2.003,1.323-3.564,1.323h-2.119v9.036H76.029z M78.733,30.656h1.229
		c1.186,0,2.001-0.21,2.446-0.632s0.667-1.229,0.667-2.423c0-0.492-0.012-0.896-0.035-1.212c-0.023-0.316-0.076-0.614-0.158-0.895
		c-0.082-0.281-0.189-0.498-0.322-0.65c-0.133-0.152-0.318-0.283-0.556-0.392c-0.238-0.109-0.515-0.183-0.831-0.222
		s-0.708-0.059-1.176-0.059h-1.264V30.656z"/>
	<path fill="#C12026" d="M87.535,41.635V22.228h2.704v17.464h4.951v1.943H87.535z"/>
</g>
<g>
	<path d="M69.212,54.832v-5.974h2.198c0.357,0,0.629,0.018,0.815,0.053s0.353,0.093,0.499,0.174c0.243,0.132,0.43,0.329,0.56,0.588
		c0.13,0.26,0.195,0.564,0.195,0.913c0,0.333-0.065,0.626-0.195,0.88c-0.13,0.254-0.319,0.457-0.568,0.608
		c-0.143,0.086-0.312,0.148-0.505,0.185c-0.193,0.036-0.512,0.055-0.955,0.055h-1.233v2.519H69.212z M70.023,51.591h1.363
		c0.473,0,0.804-0.076,0.992-0.227c0.188-0.151,0.282-0.411,0.282-0.779c0-0.354-0.093-0.608-0.28-0.762
		c-0.187-0.154-0.498-0.231-0.933-0.231h-1.423V51.591z"/>
	<path d="M74.359,54.832v-4.344h0.706v0.779c0.116-0.292,0.274-0.51,0.473-0.655c0.199-0.145,0.443-0.217,0.732-0.217
		c0.054,0,0.093,0,0.118,0.002s0.049,0.005,0.073,0.01v0.771c-0.019-0.002-0.041-0.005-0.065-0.006
		c-0.024-0.001-0.061-0.002-0.11-0.002c-0.389,0-0.686,0.106-0.89,0.318c-0.204,0.212-0.306,0.521-0.306,0.927v2.417H74.359z"/>
	<path d="M80.042,53.428h0.722c-0.078,0.479-0.287,0.856-0.625,1.131c-0.338,0.276-0.764,0.414-1.277,0.414
		c-0.603,0-1.079-0.203-1.428-0.608c-0.349-0.406-0.523-0.958-0.523-1.659c0-0.741,0.173-1.319,0.52-1.736
		c0.346-0.416,0.823-0.625,1.432-0.625c0.625,0,1.108,0.192,1.45,0.576c0.342,0.384,0.513,0.926,0.513,1.626
		c0,0.089,0,0.155-0.002,0.199c-0.001,0.043-0.005,0.085-0.01,0.125h-3.135c0.008,0.457,0.122,0.811,0.341,1.061
		s0.523,0.375,0.913,0.375c0.297,0,0.543-0.076,0.736-0.229C79.859,53.926,79.985,53.709,80.042,53.428z M77.673,52.264h2.385
		c-0.003-0.406-0.105-0.718-0.308-0.939c-0.203-0.22-0.491-0.331-0.864-0.331c-0.36,0-0.643,0.108-0.85,0.325
		C77.829,51.536,77.708,51.851,77.673,52.264z"/>
	<path d="M85.456,48.857v5.974H84.75v-0.547c-0.187,0.227-0.397,0.397-0.632,0.511c-0.235,0.114-0.495,0.17-0.779,0.17
		c-0.579,0-1.041-0.208-1.385-0.623s-0.517-0.971-0.517-1.669c0-0.711,0.173-1.277,0.519-1.697s0.807-0.631,1.383-0.631
		c0.303,0,0.571,0.056,0.805,0.168s0.436,0.28,0.606,0.505v-2.162H85.456z M84.774,52.629c0-0.538-0.109-0.944-0.326-1.217
		c-0.218-0.273-0.541-0.41-0.967-0.41c-0.411,0-0.729,0.149-0.953,0.448c-0.225,0.299-0.337,0.723-0.337,1.271
		c0,0.495,0.116,0.884,0.347,1.168c0.231,0.284,0.548,0.426,0.951,0.426c0.408,0,0.725-0.146,0.949-0.438
		C84.662,53.586,84.774,53.17,84.774,52.629z"/>
	<path d="M86.595,49.689v-0.832h0.73v0.832H86.595z M86.595,54.832v-4.344h0.73v4.344H86.595z"/>
	<path d="M91.325,51.932c-0.022-0.297-0.129-0.526-0.323-0.688c-0.193-0.161-0.458-0.241-0.792-0.241
		c-0.395,0-0.7,0.142-0.915,0.426c-0.215,0.284-0.322,0.689-0.322,1.217c0,0.53,0.104,0.938,0.311,1.225
		c0.207,0.287,0.5,0.43,0.878,0.43c0.341,0,0.613-0.088,0.817-0.264c0.204-0.176,0.331-0.431,0.379-0.767h0.698
		c-0.038,0.533-0.226,0.948-0.564,1.247s-0.792,0.448-1.363,0.448c-0.595,0-1.062-0.204-1.401-0.612
		c-0.339-0.408-0.509-0.968-0.509-1.679c0-0.728,0.177-1.297,0.531-1.709c0.354-0.412,0.841-0.619,1.46-0.619
		c0.546,0,0.983,0.143,1.312,0.428c0.328,0.285,0.503,0.671,0.525,1.158H91.325z"/>
	<path d="M93.657,53.736c0,0.195,0.027,0.325,0.083,0.39c0.055,0.065,0.157,0.097,0.306,0.097c0.043,0,0.095-0.001,0.156-0.004
		c0.061-0.003,0.14-0.008,0.237-0.016v0.62c-0.122,0.022-0.23,0.038-0.327,0.049s-0.182,0.016-0.257,0.016
		c-0.344,0-0.584-0.066-0.722-0.199c-0.138-0.132-0.207-0.368-0.207-0.706v-2.916h-0.649v-0.58h0.649v-1.213h0.73v1.213h0.783v0.58
		h-0.783V53.736z"/>
	<path d="M70.53,64.799v-5.248h-1.886v-0.726h4.587v0.726h-1.886v5.248H70.53z"/>
	<path d="M76.76,64.799v-2.673c0-0.43-0.065-0.726-0.196-0.888c-0.131-0.162-0.356-0.243-0.675-0.243
		c-0.395,0-0.708,0.111-0.941,0.334c-0.232,0.223-0.349,0.524-0.349,0.902v2.567h-0.73v-5.974h0.73v2.243
		c0.132-0.235,0.315-0.414,0.547-0.537c0.233-0.123,0.504-0.185,0.815-0.185c0.327,0,0.603,0.049,0.828,0.148
		c0.224,0.099,0.397,0.247,0.519,0.444c0.067,0.105,0.116,0.229,0.146,0.371c0.03,0.142,0.044,0.367,0.044,0.675v0.207v2.608H76.76z
		"/>
	<path d="M81.518,63.396h0.722c-0.078,0.479-0.287,0.856-0.625,1.131c-0.338,0.276-0.764,0.414-1.277,0.414
		c-0.603,0-1.079-0.203-1.428-0.608c-0.349-0.406-0.523-0.958-0.523-1.659c0-0.741,0.173-1.319,0.52-1.736
		c0.346-0.416,0.823-0.625,1.432-0.625c0.625,0,1.108,0.192,1.45,0.576c0.342,0.384,0.513,0.926,0.513,1.626
		c0,0.089,0,0.155-0.002,0.199c-0.001,0.043-0.005,0.085-0.01,0.125h-3.135c0.008,0.457,0.122,0.811,0.341,1.061
		s0.523,0.375,0.913,0.375c0.297,0,0.543-0.076,0.736-0.229C81.335,63.894,81.461,63.677,81.518,63.396z M79.149,62.232h2.385
		c-0.003-0.406-0.105-0.718-0.308-0.939c-0.203-0.22-0.491-0.331-0.864-0.331c-0.36,0-0.643,0.108-0.85,0.325
		C79.305,61.503,79.184,61.818,79.149,62.232z"/>
	<path d="M86.449,64.799l-1.553-5.974h0.791l1.221,4.778l1.261-4.778h0.848l1.306,4.745l1.237-4.745h0.771l-1.586,5.974h-0.799
		l-1.358-4.924l-1.306,4.924H86.449z"/>
	<path d="M93.032,59.657v-0.832h0.73v0.832H93.032z M93.032,64.799v-4.344h0.73v4.344H93.032z"/>
	<path d="M97.769,64.799v-2.673c0-0.427-0.065-0.723-0.196-0.886c-0.131-0.164-0.356-0.245-0.675-0.245
		c-0.409,0-0.726,0.115-0.951,0.347c-0.226,0.231-0.339,0.559-0.339,0.983v2.474h-0.73v-4.344h0.698v0.633
		c0.167-0.251,0.366-0.438,0.596-0.56c0.229-0.122,0.496-0.182,0.799-0.182c0.327,0,0.603,0.049,0.828,0.148
		c0.224,0.099,0.397,0.247,0.519,0.444c0.067,0.105,0.116,0.229,0.146,0.371c0.03,0.142,0.044,0.367,0.044,0.675v0.207v2.608H97.769
		z"/>
	<path d="M102.494,64.799v-2.673c0-0.427-0.065-0.723-0.196-0.886c-0.132-0.164-0.356-0.245-0.676-0.245
		c-0.408,0-0.725,0.115-0.951,0.347c-0.226,0.231-0.339,0.559-0.339,0.983v2.474h-0.73v-4.344h0.698v0.633
		c0.167-0.251,0.366-0.438,0.596-0.56c0.229-0.122,0.496-0.182,0.799-0.182c0.327,0,0.603,0.049,0.827,0.148s0.397,0.247,0.52,0.444
		c0.067,0.105,0.116,0.229,0.146,0.371c0.03,0.142,0.045,0.367,0.045,0.675v0.207v2.608H102.494z"/>
	<path d="M107.251,63.396h0.723c-0.079,0.479-0.287,0.856-0.625,1.131c-0.338,0.276-0.764,0.414-1.277,0.414
		c-0.604,0-1.079-0.203-1.428-0.608c-0.349-0.406-0.523-0.958-0.523-1.659c0-0.741,0.173-1.319,0.52-1.736
		c0.346-0.416,0.823-0.625,1.432-0.625c0.624,0,1.107,0.192,1.45,0.576c0.342,0.384,0.513,0.926,0.513,1.626
		c0,0.089-0.001,0.155-0.002,0.199c-0.002,0.043-0.005,0.085-0.01,0.125h-3.136c0.008,0.457,0.122,0.811,0.341,1.061
		s0.523,0.375,0.912,0.375c0.298,0,0.543-0.076,0.736-0.229S107.194,63.677,107.251,63.396z M104.883,62.232h2.385
		c-0.003-0.406-0.105-0.718-0.309-0.939c-0.202-0.22-0.49-0.331-0.863-0.331c-0.36,0-0.644,0.108-0.85,0.325
		C105.039,61.503,104.918,61.818,104.883,62.232z"/>
	<path d="M108.87,64.799v-4.344h0.706v0.779c0.116-0.292,0.273-0.51,0.472-0.655c0.199-0.145,0.443-0.217,0.732-0.217
		c0.054,0,0.094,0,0.118,0.002c0.023,0.001,0.048,0.005,0.072,0.01v0.771c-0.019-0.002-0.04-0.005-0.064-0.006
		c-0.024-0.001-0.061-0.002-0.109-0.002c-0.39,0-0.687,0.106-0.891,0.318c-0.204,0.212-0.306,0.521-0.306,0.927v2.417H108.87z"/>
</g>
</svg>
